<?xml version="1.0" encoding="UTF-8" standalone="no"?>
<!DOCTYPE svg PUBLIC "-//W3C//DTD SVG 1.1//EN" "http://www.w3.org/Graphics/SVG/1.1/DTD/svg11.dtd">
<svg width="100%" height="100%" viewBox="0 0 1000 1000" version="1.1" xmlns="http://www.w3.org/2000/svg" xmlns:xlink="http://www.w3.org/1999/xlink" xml:space="preserve" xmlns:serif="http://www.serif.com/" style="fill-rule:evenodd;clip-rule:evenodd;stroke-linejoin:round;stroke-miterlimit:2;">
    <g transform="matrix(1,0,0,1,-12,-12)">
        <g id="오른쪽귀" transform="matrix(1,0,0,1,-532.92,-189.384)">
            <path d="M798.66,379.68C849.814,304.149 897.133,280.117 913.637,338.806L860.009,388.547" style="fill:rgb(242,242,242);"/>
            <path d="M848.731,372.945C875.068,337.463 906.697,308.534 913.385,337.689" style="fill:rgb(159,187,212);"/>
            <path d="M905.821,340.321C904.033,334.631 898.623,317.34 886.549,314.671C884.732,314.269 872.358,310.661 847.232,333.104C824.556,353.359 804.716,383.002 804.24,383.471C803.609,384.095 803.087,384.852 802.346,385.34C800.055,386.853 797.753,386.382 797.354,386.301C794.569,385.732 793.265,383.727 793.037,383.377C791.552,381.094 791.999,378.784 792.077,378.385C792.438,376.524 792.62,376.583 793.661,374.997C807.753,353.542 851.306,289.897 890.199,298.621C895.721,299.859 906.717,303.99 914.846,319.682C916.066,322.038 918.672,327.233 921.072,335.949C921.113,336.1 921.429,337.247 921.5,337.856C921.966,341.876 919.422,344.198 918.998,344.585C901.18,360.848 901.12,360.774 865.594,392.742C864.106,394.081 864.236,394.312 862.358,395.004C859.73,395.972 857.559,394.981 857.182,394.809C854.551,393.609 853.699,391.296 853.552,390.895C852.584,388.267 853.575,386.097 853.747,385.72C854.577,383.899 854.798,384.046 856.245,382.663C886.769,353.483 886.621,353.32 888.287,352.006C899.183,343.416 901.436,347.034 912.335,338.442L905.821,340.321Z" style="fill:rgb(35,31,32);"/>
        </g>
        <g id="뾰족후디" transform="matrix(1,0,0,1,-532.92,-189.384)">
            <g>
                <g transform="matrix(1.26788,0,0,1.49723,-271.817,-558.531)">
                    <path d="M1223.33,1033.16C1190.64,1050.28 1157.37,1063.41 1121.15,1069.66C1085.17,1075.87 1037.09,1070.78 998.601,1074.44C987.612,1075.48 983.464,1090.98 973.161,1090.79C928.832,1089.94 897.963,1084.47 842.808,1064.32C820.638,1056.23 794.735,1039.22 776.676,1023.76C763.726,1012.68 754.278,1002.01 744.242,988.262C689.331,913.042 709.827,807.733 756.786,734.289C795.036,674.466 857.073,628.719 924.713,607.938C957.721,597.797 1001.81,583.655 1037.75,579.569C1071.76,575.703 1133.43,572.185 1173.91,574.882C1212.99,577.486 1279.06,586.271 1297.02,591.922C1383.02,618.975 1319.82,686.525 1328.93,718.625C1335.29,740.983 1348.92,761.45 1351.73,784.522C1355.01,811.48 1354.93,852.89 1348.63,880.376C1342.21,908.398 1332.47,935.461 1313.97,957.897C1289.57,987.487 1257.45,1015.3 1223.33,1033.16Z" style="fill:rgb(62,103,177);"/>
                </g>
                <g>
                    <path d="M877.43,499.433L860.433,532.915L833.973,539.469L857.424,501.978L877.43,499.433Z" style="fill:rgb(34,63,144);"/>
                    <path d="M1148.97,545.85L1114.9,571.641L1141.12,583.091L1172.65,556.74L1148.97,545.85Z" style="fill:rgb(34,63,144);"/>
                    <path d="M667.211,802.603C664.576,724.77 679.492,650.434 710.867,597.3L744.044,602.217C694.137,660.483 704.491,732.267 667.211,802.603Z" style="fill:rgb(0,57,151);"/>
                    <g transform="matrix(0.947036,0,0,0.992054,49.6308,-3.71864)">
                        <path d="M1134.65,1028.66C1232.99,1005.5 1272.74,929.212 1305.51,859.033C1325.26,816.732 1373.89,780.433 1391.79,719.234L1428.01,745.977C1443.24,760.232 1437.64,775.995 1437.32,799.548C1435.82,910.25 1177.12,1087.3 1063.18,1044.11C1053.1,1040.29 1134.65,1028.66 1134.65,1028.66Z" style="fill:rgb(34,63,144);"/>
                    </g>
                    <g transform="matrix(1,0,0,1,-3.89371,-0.205778)">
                        <path d="M850.74,509.27C873.603,498.627 915.132,496.93 952.123,502.599C1000.19,509.966 1059.36,516.574 1127.89,538.781C1190.57,559.094 1250.46,606.722 1301.02,651.534C1354.98,699.364 1402.74,753.786 1421.33,820.874L1429.62,773.053C1434.21,705.903 1215.41,513.031 1142.77,499.857C969.715,468.473 885.209,475.312 857.63,488.065C837.431,497.404 850.74,509.27 850.74,509.27Z" style="fill:rgb(34,63,144);"/>
                    </g>
                    <path d="M1420.83,393.963C1420.83,393.963 1389.08,474.343 1384.02,502.489C1380.49,522.105 1391.89,558.657 1388.58,569.77C1385.46,580.262 1379.37,597.968 1379.37,597.968L1435.54,659.944C1447.58,629.165 1431.17,609.867 1422.42,574.889C1417.55,555.43 1412.03,544.641 1408.5,526.232C1399.64,480.114 1420.8,428.913 1420.83,393.963Z" style="fill:rgb(34,63,144);"/>
                    <path d="M1349.86,452.084C1347.62,454.781 1309.72,534.453 1309.72,534.453L1340.66,558.693C1346.66,549.713 1360.94,438.762 1349.86,452.084Z" style="fill:rgb(34,63,144);"/>
                    <path d="M1378.02,355.483C1197.27,289.898 776.21,318.611 689.957,590.373C676.468,632.871 668.286,644.396 659.875,685.079C652.05,722.927 643.748,789.495 638.001,839.651C587.976,423.901 973.022,195.74 1414.34,347.557C1415.41,348.746 1424.27,389.191 1424.27,389.191C1426.76,424.637 1420.93,394.233 1404.63,374.513C1397.89,366.354 1385.57,358.223 1378.02,355.483Z" style="fill:white;"/>
                    <g transform="matrix(1.13055,0,0,1.11203,-130.523,-130.719)">
                        <path d="M945.323,1046.04C932.32,1055.15 914.437,1089.69 906.869,1077.25C892.362,1053.39 772.268,1083.99 721.698,920.026C829.23,1031.33 845.519,1024.66 945.323,1046.04Z" style="fill:rgb(34,63,144);"/>
                    </g>
                    <path d="M1085,1046.42C1285.46,990.041 1399.47,880.407 1420.89,751.858L1439.53,774.989C1375.39,935.234 1240.38,1029.02 1085,1046.42Z" style="fill:rgb(160,240,255);"/>
                </g>
                <g transform="matrix(1.26788,0,0,1.49723,-271.817,-558.531)">
                    <path d="M1227.89,1039.41C1194.31,1057 1160.1,1070.43 1122.89,1076.86C1085.95,1083.23 1041.52,1079.98 1002.13,1083.48C1000.59,1083.62 999.276,1084.58 997.864,1085.53C995.177,1087.33 992.584,1089.56 989.979,1091.5C984.533,1095.56 978.742,1098.24 972.964,1098.13C927.539,1097.26 895.892,1091.71 839.373,1071.07C816.305,1062.64 789.298,1045.02 770.508,1028.93C757.08,1017.44 747.269,1006.38 736.863,992.125C680.365,914.731 700.841,806.358 749.157,730.791C788.457,669.326 852.257,622.383 921.754,601.032C955.282,590.731 1000.09,576.437 1036.6,572.287C1071.07,568.369 1133.57,564.824 1174.59,567.558C1214.41,570.212 1281.74,579.276 1300.04,585.035C1324.22,592.641 1337.66,603.357 1344.76,615.321C1351.86,627.28 1352.61,640.726 1350.41,654.374C1348.03,669.129 1342.18,684.121 1338.85,697.259C1336.97,704.682 1335.81,711.397 1337.37,716.907C1343.81,739.582 1357.51,760.37 1360.36,783.768C1363.71,811.332 1363.59,853.672 1357.15,881.775C1350.49,910.827 1340.26,938.843 1321.08,962.103C1296.01,992.512 1262.96,1021.06 1227.89,1039.41ZM1218.77,1026.91C1251.95,1009.55 1283.13,982.463 1306.86,953.691C1324.68,932.079 1333.93,905.969 1340.11,878.976C1346.27,852.108 1346.3,811.628 1343.1,785.275C1340.33,762.53 1326.76,742.385 1320.5,720.343C1318.8,714.357 1319.1,707.311 1320.65,699.571C1322.68,689.481 1326.85,678.028 1330.08,666.282C1334.38,650.68 1337.37,634.471 1328.61,620.868C1322.89,612.001 1312.11,604.505 1294,598.809C1276.38,593.267 1211.55,584.761 1173.23,582.207C1133.3,579.545 1072.46,583.036 1038.91,586.85C1003.53,590.872 960.16,604.863 927.672,614.844C861.888,635.055 801.616,679.605 764.416,737.787C718.814,809.109 698.298,911.353 751.622,984.398C761.286,997.637 770.373,1007.92 782.844,1018.6C800.171,1033.43 824.972,1049.81 846.244,1057.58C900.035,1077.22 930.124,1082.61 973.357,1083.44C974.434,1083.46 975.274,1082.68 976.294,1082.03C978.841,1080.39 981.341,1078.25 983.911,1076.29C989.051,1072.39 994.598,1069.38 1000.32,1068.87C1039.16,1065.41 1083,1068.75 1119.42,1062.46C1154.65,1056.38 1186.97,1043.56 1218.77,1026.91Z" style="fill:rgb(35,31,32);"/>
                </g>
                <g transform="matrix(1.02402,0,0,0.76459,-34.7282,243.999)">
                    <path d="M1001.5,1021.19C1000.4,1016.02 1084.17,1006.28 1113.56,1078.47C1140.09,1143.65 1020.32,1064.67 1014.45,1059.27C1008.58,1053.88 1001.7,1022.13 1001.5,1021.19Z" style="fill:rgb(30,102,217);"/>
                    <path d="M993.396,1023.81C993.358,1023.49 993.291,1023.17 993.253,1022.85C992.866,1019.53 993.42,1012.31 1000.28,1009.26C1009.98,1004.96 1043.02,1003.93 1072.03,1018.83C1079.68,1022.76 1106.99,1037.08 1121.57,1074.88C1123.97,1081.09 1129.37,1096.53 1121.93,1107.68C1113.78,1119.89 1095.81,1115.98 1072.86,1105.63C1046.62,1093.81 1013.7,1072.27 1009.48,1068.24C1007.26,1066.11 1002.12,1060.52 994.851,1030.22C993.792,1025.81 993.499,1024.33 993.396,1023.81ZM1012.17,1029.19C1014.44,1037.85 1017.22,1046.8 1019.33,1050.18C1030.35,1058.65 1086.08,1093.72 1106.8,1092.94C1107.76,1092.9 1108.45,1092.79 1108.93,1092.67C1108.03,1086.52 1102.86,1075.02 1096.95,1066.5C1072.33,1031.03 1029.84,1027.37 1012.17,1029.19Z" style="fill:rgb(31,31,31);"/>
                </g>
                <path d="M980.524,1026.75C988.127,1023.9 893.121,1022.74 899.153,1087.99C903.321,1133.09 1007.31,1057.98 998.417,1054.49C990.496,1051.38 980.524,1026.75 980.524,1026.75Z" style="fill:rgb(62,103,177);"/>
                <path d="M986.149,1045.15C950.614,1056.79 932.712,1074.67 913.584,1100.53C949.629,1099.59 972.931,1087.81 1001.94,1058.95L986.149,1045.15Z" style="fill:rgb(34,63,144);"/>
                <path d="M1001.63,1046.92C1002.95,1047.5 1006.41,1049.24 1007.12,1054.14C1007.9,1059.53 1003.12,1064.42 999.764,1067.62C985.209,1081.44 940.999,1111.21 914.459,1110.59C901.365,1110.28 892.143,1102.88 890.916,1088.3C886.809,1039.53 931.714,1020.88 967.991,1017.85C970.465,1017.64 977.52,1017.19 981.542,1017.94C986.585,1018.88 988.997,1022.45 989.161,1026.04C992.944,1034.71 998.352,1044.54 1001.63,1046.92ZM977.635,1019.04L977.569,1019.07C977.571,1019.07 977.573,1019.08 977.575,1019.08C977.595,1019.07 977.615,1019.06 977.635,1019.04ZM974.682,1034C959.885,1034.19 918.142,1040.27 908.986,1069.28C905.977,1078.81 907.401,1088.14 907.677,1089.33C908.303,1092.03 909.453,1093.98 914.667,1094.13C923.483,1094.38 938.605,1088.9 956.614,1078.39C970.218,1070.46 981.822,1061.78 987.743,1056.32C984.377,1052.47 980.206,1046.05 975.14,1035C974.977,1034.64 974.825,1034.31 974.682,1034Z" style="fill:rgb(31,31,31);"/>
            </g>
        </g>
        <g id="왼쪽귀" transform="matrix(1,0,0,1,-532.92,-189.384)">
            <path d="M1137.64,439.16C1146.72,431.555 1182.73,405.791 1194.18,397.604C1202.47,391.683 1233.7,377.228 1240.41,375.229C1294.41,359.138 1334.5,360.149 1344.8,380.933C1360.75,413.094 1349.44,481.014 1307.48,531.6" style="fill:rgb(242,242,242);"/>
            <path d="M1256.44,492.576C1325.5,379.959 1372.06,393.604 1340.63,479.432C1335.21,494.215 1311.99,510.875 1302.73,529.878L1256.44,492.576Z" style="fill:rgb(231,152,144);"/>
            <path d="M1357.52,444.521C1347.52,496.177 1319,529.654 1313.37,536.464C1313.07,536.825 1311.36,538.901 1308.19,539.196C1307.22,539.287 1306.21,539.195 1305.27,538.908C1302.2,537.966 1300.93,535.543 1300.71,535.123C1299.26,532.37 1300.04,529.833 1300.17,529.393C1300.73,527.572 1300.87,527.623 1302.07,526.155C1313.19,512.644 1320.88,497.921 1322.24,495.307C1344.72,452.278 1347.94,406.767 1336.7,384.765C1330.09,371.822 1298.39,367.703 1244.26,383.629C1244.14,383.662 1241.92,384.013 1229.65,389.568C1216.86,395.359 1203.66,402.076 1199.49,405.058C1153.78,437.719 1145.61,444.427 1143.49,446.185C1140.6,448.588 1137.38,448.302 1136.83,448.253C1135.66,448.15 1134.49,447.825 1133.45,447.286C1132.95,447.024 1130.04,445.516 1128.9,441.844C1127.79,438.287 1129.25,435.469 1129.51,434.979C1130.51,433.046 1130.61,433.088 1132.29,431.709C1134.76,429.69 1141.61,424.176 1170.41,403.41C1176.27,399.181 1188.73,390.237 1189.71,389.577C1200.02,382.651 1230.51,368.654 1237.59,366.526C1261.95,359.201 1297.72,351.336 1323.37,356.823C1347.35,361.953 1352.64,375.962 1354.84,381.541C1361.69,398.922 1361.84,422.21 1357.52,444.521Z" style="fill:rgb(35,31,32);"/>
            <path d="M1299.71,426.352C1305.25,421.924 1311.92,416.885 1320.61,411.593C1321.75,410.9 1321.81,410.893 1323.11,411.161C1323.13,411.164 1325.17,412.524 1325.17,412.532C1325.33,413.355 1325.81,414.181 1325.64,415.001C1325.29,416.688 1324.96,416.535 1323.57,417.546C1293.79,439.1 1270.01,471.276 1259.79,492.234C1258.17,495.55 1257.17,498.007 1256.9,498.68C1255.88,501.126 1253.69,502.009 1253.33,502.158C1250.81,503.172 1248.71,502.278 1248.34,502.122C1247.97,501.964 1245.84,501.056 1244.82,498.542C1244.51,497.769 1244.34,496.92 1244.35,496.087C1244.37,494.379 1244.51,494.391 1245.21,492.833C1246.47,490.044 1252.51,476.455 1266.2,459.554C1274.11,449.781 1286.42,436.989 1299.71,426.352Z" style="fill:rgb(35,31,32);"/>
        </g>
        <g id="얼굴" transform="matrix(1,0,0,1,-532.92,-189.384)">
            <g transform="matrix(1.12595,0,0,1.00394,-190.608,-148.423)">
                <path d="M1025.91,675.415C1166.62,684.764 1282.16,794.64 1283.35,932.557C1283.95,1001.62 1265.84,1050.79 1217.94,1096.03C1170.7,1140.67 1092.99,1168.68 1022.67,1169C975.601,1169.22 929.708,1161.22 891.392,1140.76C836.518,1111.44 798.71,1064.45 782.749,1023.2C771.793,994.883 767.608,964.271 772.884,933.958C777.109,909.68 789.862,889.394 789.086,868.967C783.984,734.638 902.987,667.248 1025.91,675.415Z" style="fill:rgb(242,242,242);"/>
            </g>
            <path d="M732.226,616.263C852.399,509.446 962.305,492.423 1137.08,579.846C1126.07,592.923 1075.97,615.042 1016.39,597.12C969.344,582.972 967.372,560.706 943.914,552.299C907.748,539.337 863.517,551.29 841.904,569.49C818.432,589.255 813.302,612.196 732.226,616.263Z" style="fill:rgb(160,186,210);"/>
            <path d="M713.425,929.586C915.237,1125.91 1263.75,990.767 1253.51,810.698C1121.36,1002.78 936.852,1073.23 713.425,929.586Z" style="fill:rgb(160,186,210);"/>
            <path d="M1248.44,759.571C1222.28,689.03 1159.28,607.204 1101.22,592.429C1089.28,589.389 1124.09,587.8 1113.32,579.44C1206.61,624.823 1216.46,664.698 1248.44,759.571Z" style="fill:rgb(160,186,210);"/>
            <g transform="matrix(1.12595,0,0,1.00394,-190.608,-148.423)">
                <path d="M1026.42,665.715C1048.92,667.282 1125.83,673.929 1197.39,734.506C1251.24,780.087 1291.29,849.508 1292.02,932.448C1292.66,1006.02 1272.46,1057.43 1222.96,1104C1176.43,1147.77 1097.75,1178.58 1021.59,1178.72C938.443,1178.88 893.802,1153.87 874.074,1141.72C826.295,1112.29 788.595,1067.2 772.464,1020.72C768.78,1010.1 756.779,974.332 764.486,931.498C768.961,906.624 781.052,887.03 780.428,869.343C779.578,845.27 779.107,767.457 853.107,711.837C882.117,690.033 923.241,672.094 974.496,666.68C998.915,664.1 1018.25,665.191 1026.42,665.715ZM1025.41,685.109L1025.4,685.117C1013.61,684.375 945.151,679.288 882.521,715.039C831.628,744.09 795.189,794.547 797.716,867.805C797.996,875.921 797.384,884.293 791.643,901.442C785.917,918.545 781.075,929.466 779.627,950.355C776.292,998.467 797.97,1035.79 801.863,1042.61C824.779,1082.77 861.621,1115.02 898.58,1133.79C913.76,1141.49 953.936,1159.81 1023.43,1159.28C1089.77,1158.77 1166.21,1132.69 1213.44,1087.57C1257.01,1045.96 1275.46,1000.36 1274.68,931.986C1273.17,800.498 1162.82,695.565 1028.13,685.311L1025.41,685.109Z" style="fill:rgb(31,31,31);"/>
            </g>
        </g>
        <g id="눈코입" transform="matrix(1,0,0,1,-532.92,-189.384)">
            <g>
                <g transform="matrix(0.955682,0,0,0.986792,33.3978,13.0389)">
                    <path d="M1056.98,637.697C1089.43,637.697 1115.78,666.234 1115.78,701.384C1115.78,736.534 1090.61,763.38 1058.15,763.38C1025.7,763.38 998.172,736.534 998.172,701.384C998.172,666.234 1024.52,637.697 1056.98,637.697Z" style="fill:rgb(33,31,30);"/>
                    <path d="M1056.98,629.355C1059.34,629.371 1084.16,628.548 1104.67,650.475C1136.04,684.025 1129.19,741.349 1089.9,763.478C1059.04,780.861 1018.35,770.091 999.326,737.724C978.797,702.801 991.784,655.547 1027.01,636.847C1040.99,629.423 1053.3,629.393 1056.98,629.355ZM1056.94,646.029C1056.75,646.036 1056.55,646.041 1056.34,646.044C1028.09,646.426 1005.22,672.783 1006.87,704.614C1008.52,736.238 1036.41,759.562 1066.6,754.301C1091.04,750.042 1109.16,726.381 1106.99,696.697C1104.94,668.736 1083.44,646.305 1057.61,646.044C1057.38,646.041 1057.16,646.036 1056.94,646.029Z" style="fill:rgb(31,31,31);"/>
                </g>
                <g transform="matrix(0.81496,0.59045,-0.789892,1.09024,755.434,-608.32)">
                    <ellipse cx="962.678" cy="656.231" rx="11.171" ry="10.511" style="fill:rgb(254,255,254);"/>
                    <path d="M962.646,640.322C962.666,640.087 962.677,639.849 962.678,639.606C979.248,639.783 987.521,655.618 978.025,666.394C971.115,674.236 956.593,675.445 948.101,667.202C943.769,662.996 941.372,655.847 945.329,648.828C946.76,646.292 951.738,639.767 962.611,639.606C962.613,639.849 962.625,640.087 962.646,640.322ZM962.678,651.823C962.627,651.83 962.576,651.838 962.524,651.845C960.715,652.097 958.442,655.806 960.49,659.021C960.767,659.455 961.709,660.654 962.77,660.624C964.831,660.345 966.883,656.401 964.8,653.343C964.146,652.383 963.305,651.911 962.831,651.845C962.779,651.838 962.728,651.83 962.678,651.823Z" style="fill:white;"/>
                </g>
            </g>
            <g>
                <g transform="matrix(1.23231,0,0,0.879121,-155.418,94.9435)">
                    <path d="M739.499,653.395C753.672,653.395 760.815,677.587 760.815,711.106C760.815,744.625 754.867,775.017 740.694,775.017C726.521,775.017 716.183,752.865 716.183,719.346C716.183,685.827 725.326,653.395 739.499,653.395Z" style="fill:rgb(35,31,32);"/>
                    <path d="M739.531,644.031C743.885,644.148 760.512,645.188 765.956,685.554C768.585,705.048 768.24,738.688 761.951,760.233C754.62,785.348 741.806,786.712 732.889,782.635C716.588,775.183 706.238,743.94 710.424,700.316C712.914,674.377 721.795,644.304 739.531,644.031ZM739.467,662.75C739.399,662.755 739.33,662.76 739.259,662.765C730.522,663.311 722.434,691.043 722.878,721.493C723.087,735.792 725.377,747.172 728.781,754.773C733.756,765.886 739.546,765.691 741.025,765.643L741.029,765.642C741.57,765.594 746.249,766.02 750.097,751.293C754.474,734.544 755.212,706.339 752.746,688.422C751.525,679.547 749.595,673.025 747.341,668.827C744.202,662.979 741.058,662.798 739.467,662.758L739.467,662.75Z" style="fill:rgb(35,31,32);"/>
                </g>
                <g transform="matrix(1.21158,0.633832,-0.517886,0.989946,203.73,-473.324)">
                    <ellipse cx="747.691" cy="700.897" rx="4.585" ry="8.113" style="fill:rgb(254,255,254);"/>
                    <path d="M747.691,685.417C747.71,685.417 752.655,685.047 755.998,691.177C760.691,699.783 757.963,713.565 749.906,716.048C743.145,718.132 736.499,710.438 737.128,699.487C737.348,695.67 738.622,691.393 741.28,688.491C744.183,685.322 747.23,685.431 747.691,685.417Z" style="fill:white;"/>
                </g>
            </g>
            <g transform="matrix(1.17838,-0.0908273,0.0765886,0.993648,-289.884,-37.1611)">
                <path d="M896.371,866.7C902.949,866.326 916.95,866.57 919.398,871.086C921.882,875.669 917.984,879.108 914.264,885.499C911.659,890.292 903.384,894.97 897.803,898.165C892.223,894.97 885.834,889.803 883.23,885.01C879.509,878.62 877.508,877.955 879.93,873.326C882.143,869.1 890.472,867.034 896.371,866.7Z" style="fill:rgb(35,31,32);"/>
                <path d="M896.052,858.448C899.549,858.267 911.758,857.823 918.967,861.047C920.141,861.572 925.3,863.742 926.809,870.798C928.641,879.362 922.657,885.433 920.027,890.139C916.681,896.125 909.563,900.598 901.916,904.982C901.754,905.075 900.364,905.872 899.858,906.057C899.542,906.173 897.793,906.813 895.73,906.051C894.355,905.542 883.794,899.394 878.44,891.256C877.544,889.895 877.568,889.685 875.819,886.997C873.728,883.783 869.1,877.76 874.249,868.538C879.425,859.267 894.744,858.539 896.052,858.448ZM896.689,874.942C896.545,874.956 896.396,874.969 896.241,874.98C892.996,875.218 889.326,876.044 887.028,877.18C887.582,878.03 888.256,879.093 889.136,880.63C889.572,881.391 891.832,884.803 897.929,888.906C901.644,886.728 907.065,883.352 908.547,880.781C909.592,878.967 910.761,877.244 911.711,875.79C908.947,875.156 904.161,874.599 896.689,874.951L896.689,874.942ZM881.511,876.721C881.38,876.736 881.293,876.761 881.233,876.776L881.511,876.721Z" style="fill:rgb(35,31,32);"/>
            </g>
            <g>
                <path d="M913.874,768.866C913.794,767.354 913.711,767.321 914.214,765.883C914.343,765.516 915.083,763.4 917.444,762.245C917.804,762.069 919.881,761.054 922.444,761.948C922.812,762.076 924.928,762.814 926.082,765.178C926.862,766.773 926.681,766.834 926.796,768.604C928.448,794.181 908.149,811.792 885.338,814.567C868.614,816.602 846.952,809.708 839.067,792.138C837.203,787.984 836.557,783.904 836.377,781.291C836.187,778.532 837.587,776.795 837.839,776.482C838.336,775.866 838.952,775.325 839.642,774.937C843.143,772.969 845.943,775.226 846.364,775.565C846.991,776.071 847.539,776.698 847.945,777.394C848.954,779.124 848.626,779.244 849.081,781.19C849.839,784.427 851.166,786.467 851.475,786.989L851.477,786.988C851.745,787.402 856.63,796.554 872.689,798.725C884.956,800.383 896.619,796.648 903.894,790.461C913.894,781.957 913.862,771.623 913.875,768.884L913.874,768.866Z" style="fill:rgb(35,31,32);"/>
                <g transform="matrix(0.952133,0,0,1.01819,43.011,-15.7069)">
                    <path d="M846.372,801.955C846.372,801.955 832.429,805.998 830.625,809.966C828.822,813.934 831.638,818.672 835.55,825.761C839.774,833.416 845.386,847.088 852.417,853.556C859.253,859.844 870.943,865.51 878.954,863.2C885.186,861.404 892.963,857.481 896.31,841.124C897.916,833.275 898.422,817.533 899.223,804.252C887.076,809.846 868.554,809.755 846.372,801.955" style="fill:rgb(252,173,167);"/>
                    <path d="M841.072,795.952C843.23,794.276 845.595,794.197 846.044,794.182C848.231,794.109 848.216,794.3 850.273,795.005C880.708,805.432 894.948,797.493 895.581,797.251C896.025,797.081 896.464,796.893 896.926,796.769C897.463,796.625 900.626,795.775 903.832,797.769C907.038,799.762 907.425,802.817 907.491,803.337C907.575,803.999 907.474,805.722 907.462,805.929C906.175,827.95 906.139,839.301 902.571,849.718C899.712,858.064 893.992,867.454 880.682,870.806C867.684,874.079 851.201,864.646 843.961,856.149C837.077,848.07 832.924,837.426 827.737,827.888C824.249,821.472 819.859,813.945 823.596,806.624C825.748,802.409 831.471,799.14 841.072,795.952ZM845.505,809.947C842.117,811.149 839.573,812.303 838.091,813.224C838.772,815.933 841.277,819.451 845.337,827.413C850.258,837.066 853.999,844.634 858.922,848.793C865.006,853.933 873.074,856.818 876.527,855.781C879.571,854.867 885.371,853.263 888.132,839.668C889.166,834.578 889.71,825.721 890.293,815.034C880.655,816.681 865.931,816.753 845.505,809.947Z" style="fill:rgb(35,31,32);"/>
                </g>
                <g transform="matrix(0.952133,0,0,1.01819,43.011,-15.7069)">
                    <path d="M826.914,808.822C828.445,812.307 833.16,822.287 834.3,821.845C836.077,821.157 834.946,816.102 838.829,811.394C844.835,804.112 848.463,800.782 848.463,800.782C848.463,800.782 826.272,807.361 826.914,808.822Z" style="fill:rgb(35,31,32);"/>
                    <path d="M827.083,808.757L819.213,811.781C819.004,811.168 818.985,811.177 818.796,810.558C818.583,809.864 818.51,808.19 818.709,807.349C819.833,802.578 823.104,800.91 832.517,797.646C838.065,795.722 845.804,793.394 845.934,793.364C847.283,793.056 847.274,792.967 848.665,792.999C853.204,793.102 855.237,796.217 855.569,796.726C857.935,800.35 856.235,803.635 855.957,804.172C855.22,805.598 854.282,806.236 851.823,808.843C849.881,810.904 845.273,816.12 844.77,816.952C843.076,819.752 843.883,824.702 839.314,827.831C836.336,829.87 830.392,830.957 826.206,824.723C823.889,821.274 820.745,814.018 819.736,811.598L827.083,808.757Z" style="fill:rgb(35,31,32);"/>
                </g>
                <g transform="matrix(0.944759,0,0,1.01829,44.8499,-14.2279)">
                    <path d="M846.692,785.06L847.108,785.126C846.921,792.913 844.137,800.305 835.95,809.339C834.956,810.436 831.646,813.841 828.59,815.936C827.685,816.557 819.885,822.313 807.782,820.459C795.551,818.584 786.294,810.446 783.217,805.428C782.425,804.136 777.871,796.71 778.936,787.288C779.17,785.214 779.551,785.324 780.975,783.711C781.399,783.23 782.083,782.982 782.718,782.783C783.022,782.688 784.75,782.146 786.711,783.094C788.625,784.019 789.197,785.649 789.296,785.931C789.375,786.157 789.275,786.169 789.702,788.873C790.021,790.898 790.949,793.049 791.106,793.412L791.109,793.412C791.17,793.542 791.889,795.249 793.231,796.998C794.512,798.669 795.182,799.082 795.495,799.324L795.499,799.321C798.584,801.72 801.942,803.009 803.503,803.567L803.504,803.565C804.998,804.099 805.752,804.369 807.855,804.783L807.855,804.78C809.656,805.142 810.06,805.199 811.88,805.259L811.902,805.26C812.578,805.292 816.424,805.457 819.359,803.872C822.918,801.951 830.734,796.054 833.88,789.694C835.735,785.946 835.572,783.388 836.456,781.537C836.605,781.226 837.469,779.417 839.85,778.676C840.54,778.461 841.287,778.363 842.013,778.408C844.394,778.555 845.71,779.974 845.939,780.221C846.905,781.262 846.982,781.818 847.005,781.978C847.234,783.619 846.739,783.927 846.692,785.06ZM846.735,785.915C846.739,785.95 846.744,785.985 846.749,786.021L846.791,785.94L846.735,785.915Z" style="fill:rgb(35,31,32);"/>
                </g>
            </g>
            <g transform="matrix(0.905775,-0.30053,0.361761,1.09032,-188.207,256.346)">
                <ellipse cx="1127.75" cy="804.602" rx="51.141" ry="30.391" style="fill:rgb(252,173,167);"/>
            </g>
            <g transform="matrix(1.05092,0.23295,-0.216411,0.976302,135.705,-156.329)">
                <ellipse cx="729.99" cy="823.011" rx="24.37" ry="26.287" style="fill:rgb(252,173,167);"/>
            </g>
        </g>
        <g id="고글" transform="matrix(0.972627,0,0,0.956816,-528.996,-175.122)">
            <g>
                <g transform="matrix(1.02814,0,0,1.04513,1.3311,-13.6188)">
                    <path d="M846.078,412.81C962.139,405.469 1087.81,415.853 1194.14,466.321C1298.22,515.719 1384.17,601.543 1448.98,695.436C1448.98,695.436 1452.04,765.278 1440.24,792.922C1366.47,681.749 1255.57,570.047 1132.5,521.625C1038.02,484.458 934.283,476.718 834.229,483.301" style="fill:rgb(210,114,40);"/>
                </g>
                <g transform="matrix(1.02814,0,0,1.04513,1.3311,-13.6188)">
                    <path d="M846.078,412.81C962.139,405.469 1087.81,415.853 1194.14,466.321C1298.22,515.719 1384.17,601.543 1448.98,695.436C1448.98,695.436 1461.22,692.501 1449.42,720.146C1375.65,608.973 1270.12,511.661 1147.04,463.239C1052.57,426.072 956.742,425.833 856.687,432.416L846.078,412.81Z" style="fill:white;"/>
                </g>
                <g transform="matrix(1.02814,0,0,1.04513,1.3311,-13.6188)">
                    <path d="M1440.84,698.138C1401.1,641.163 1307.83,519.612 1163.26,461.827C1049.79,416.471 925.76,416.067 846.593,421.025C846.09,421.057 843.204,421.238 840.639,418.975C839.85,418.279 839.176,417.418 838.711,416.474C838.485,416.015 837.182,413.367 838.311,410.094C839.405,406.923 841.969,405.661 842.414,405.442C843.387,404.964 844.492,404.814 845.554,404.595C845.577,404.59 852.256,404.173 857.931,403.881C1070.35,392.972 1183.49,448.2 1238.82,480.771C1338.18,539.261 1405.71,623.319 1432.7,658.899C1440.03,668.555 1447.5,678.832 1454.99,689.645C1457.14,692.752 1457.17,693.1 1457.32,698.245C1457.72,711.615 1458.48,755.045 1451.92,783.08C1451.01,787.02 1449.73,791.55 1447.99,795.741C1447.89,795.972 1447.3,797.377 1446.37,798.419C1445.95,798.887 1443.38,801.745 1438.97,801.055C1438.54,800.989 1436.17,800.617 1434.23,798.548C1433.05,797.284 1433.37,797.046 1421.97,780.699C1352.34,680.882 1247.43,575.041 1127.3,528.434C1020.7,487.074 909.845,486.661 834.765,491.516C834.263,491.548 831.379,491.735 828.809,489.482C828.017,488.788 827.341,487.93 826.873,486.987C826.645,486.529 825.334,483.886 826.453,480.61C827.537,477.436 830.097,476.166 830.541,475.946C831.512,475.464 832.612,475.284 833.678,475.088C833.742,475.076 842.118,474.544 847.905,474.25C914.591,470.869 1026.64,471.066 1135.5,513.962C1156.35,522.177 1217.95,547.623 1292.84,612.086C1361.7,671.353 1409.7,734.127 1437.08,773.617C1437.94,768.868 1438.8,762.86 1439.5,755.284C1439.93,750.518 1441.81,729.229 1440.84,698.138Z" style="fill:rgb(31,31,31);"/>
                </g>
                <g>
                    <g transform="matrix(0.991772,0.280159,-0.270208,0.988419,145.607,-273.462)">
                        <path d="M1116.61,347.229C1138.21,359.128 1169.97,382.357 1179.56,405.988C1184.86,419.071 1188.31,434.452 1187.63,448.641C1186.42,474.006 1179.56,496.572 1164.1,517.016C1121.08,573.902 1029.37,590.389 976.697,537.703C964.391,525.394 955.001,492.847 949.224,476.462" style="fill:rgb(209,112,0);"/>
                        <path d="M1135.73,533.936C1145.8,525.963 1166.76,507.859 1175.37,475.475C1178.48,463.784 1179.93,449.881 1179.35,440.407C1178.39,425.107 1172.96,410.654 1170.12,405.255C1160.26,386.53 1134.58,366.707 1112.69,354.601C1112.25,354.356 1109.71,352.952 1108.74,349.612C1108.44,348.584 1108.33,347.476 1108.43,346.409C1108.49,345.891 1108.79,342.9 1111.48,340.684C1111.86,340.367 1114.08,338.538 1117.42,338.886C1119.65,339.12 1119.6,339.338 1121.57,340.435C1138.38,349.801 1167.01,369.335 1181.51,392.009C1184.19,396.205 1187.34,401.695 1191,413.683C1197.34,434.434 1195.81,449.838 1195.7,451.557C1193.86,480.415 1185.01,507.494 1162.04,532.346C1124.59,572.868 1059.58,590.819 1006.67,567.961C1002,565.942 986.094,558.917 970.952,543.702C957.153,529.836 948.149,498.297 941.485,479.295C941.315,478.812 940.343,476.041 941.797,472.892C942.245,471.922 942.882,471.018 943.659,470.295C944.036,469.944 946.211,467.917 949.664,468.092C953.01,468.261 954.935,470.411 955.269,470.784C956.66,472.337 956.546,472.434 957.239,474.417C962.896,490.625 971.915,521.264 982.739,532C1024.65,573.565 1091.88,567.345 1134.49,534.89C1134.9,534.575 1135.31,534.255 1135.72,533.94L1135.73,533.936Z" style="fill:rgb(31,31,31);"/>
                    </g>
                    <g transform="matrix(0.824967,0.383064,-0.453392,1.00896,683.294,-274.522)">
                        <path d="M798.444,384.826C825.41,377.346 846.929,399.625 858.89,429.31C858.89,429.31 838.595,406.123 828.377,399.341C817.83,392.341 798.444,384.826 798.444,384.826Z" style="fill:white;"/>
                    </g>
                    <g transform="matrix(1.14613,-0.198314,0.193277,1.15424,-684.046,399.5)">
                        <ellipse cx="1479.59" cy="294.381" rx="95.249" ry="88.138" style="fill:white;"/>
                        <path d="M1479.59,198.895C1489.08,198.95 1517.21,199.758 1544.54,220.507C1573.63,242.59 1589.4,280.033 1578.86,318.361C1567.22,360.665 1523.57,393.717 1470.49,389.496C1422.09,385.646 1380.09,348.985 1377.2,299.345C1375.57,271.284 1387.6,240.003 1417.01,218.752C1425.76,212.435 1436.06,207.292 1446.33,204.041C1460.69,199.489 1472.16,198.938 1479.59,198.895ZM1479.58,213.591C1475.94,213.619 1445.35,212.87 1419.06,235.789C1381.28,268.733 1382.73,324.315 1422.2,355.58C1459.73,385.308 1516.66,380.707 1548,345.139C1578.19,310.884 1572.92,260.612 1535.77,232.239C1511.31,213.553 1485.06,213.606 1479.6,213.591L1479.58,213.591Z" style="fill:rgb(35,31,32);"/>
                    </g>
                    <g transform="matrix(1.0124,-0.338877,0.321568,0.992699,-137.091,379.769)">
                        <ellipse cx="1051.26" cy="428.791" rx="76.711" ry="68.649" style="fill:rgb(95,169,255);"/>
                        <path d="M1051.26,352.215C1058.58,352.256 1083.2,352.737 1106.39,370.827C1129.54,388.879 1141.52,418.613 1132.75,448.642C1122.23,484.698 1083.06,510.078 1039.64,504.645C991.556,498.627 957.947,456.391 969.003,411.743C972.424,397.927 981.019,382.399 996.858,370.26C1020.73,351.961 1046.66,352.241 1051.26,352.215ZM1051.25,368.068C1049.05,368.081 1022.96,367.297 1001.73,386.52C973.283,412.286 976.322,453.803 1008.21,476.23C1039.18,498.019 1084.63,492.396 1107.67,463.776C1129.29,436.918 1122.59,399.757 1092.33,380.004C1074.33,368.252 1056.11,368.082 1051.27,368.068L1051.25,368.068Z" style="fill:rgb(35,31,32);"/>
                    </g>
                    <g transform="matrix(0.641374,0,0,0.322844,194.544,319.544)">
                        <path d="M1357.89,188.143C1411.9,188.143 1452.82,245.397 1452.82,268.263C1452.82,291.129 1418.15,243.321 1364.15,243.321C1310.14,243.321 1271.02,281.22 1271.02,258.354C1271.02,235.488 1303.89,188.143 1357.89,188.143Z" style="fill:rgb(16,130,238);"/>
                    </g>
                    <g transform="matrix(1.0124,-0.338877,0.321568,0.992699,-137.091,379.769)">
                        <path d="M1051.26,352.215C1058.58,352.256 1083.2,352.737 1106.39,370.827C1129.54,388.879 1141.52,418.613 1132.75,448.642C1122.23,484.698 1083.06,510.078 1039.64,504.645C991.556,498.627 957.947,456.391 969.003,411.743C972.424,397.927 981.019,382.399 996.858,370.26C1020.73,351.961 1046.66,352.241 1051.26,352.215ZM1051.25,368.068C1049.05,368.081 1022.96,367.297 1001.73,386.52C973.283,412.286 976.322,453.803 1008.21,476.23C1039.18,498.019 1084.63,492.396 1107.67,463.776C1129.29,436.918 1122.59,399.757 1092.33,380.004C1074.33,368.252 1056.11,368.082 1051.27,368.068L1051.25,368.068Z" style="fill:rgb(35,31,32);"/>
                    </g>
                </g>
                <g>
                    <g transform="matrix(0.840314,0.71102,-0.828911,1.01229,772.793,-518.986)">
                        <path d="M524.636,514.529C537.488,507.134 568.647,489.646 584.236,489.889C639.648,490.752 669.606,538.975 669.606,593.13C669.606,617.776 662.817,639.32 649.664,656.641C633.916,677.379 612.476,690.662 584.442,688.651C564.797,687.242 528.819,671.075 513.876,659.67" style="fill:rgb(210,114,40);"/>
                        <path d="M607.426,693.469C590.044,697.358 576.576,694.243 573.965,693.693C553.999,689.485 523.812,675.977 508.706,664.532C508.352,664.264 506.316,662.721 506.154,659.997C506.104,659.163 506.241,658.303 506.572,657.516C507.659,654.926 510.166,653.929 510.601,653.757C511.246,653.5 515.207,651.925 519.379,655.061C533.073,665.357 567.485,681.104 585.968,682.2C597.665,682.894 621.693,681.695 643.432,652.738C649.219,645.03 665.284,621.726 661.23,579.858C657.025,536.44 631.592,497.48 584.68,496.431C582.966,496.392 571.907,495.447 531.584,518.444C529.09,519.866 529.107,519.888 528.989,519.93C528.049,520.263 527.167,520.754 526.168,520.927C525.711,521.007 523.079,521.465 520.437,520.012C520.034,519.791 517.71,518.513 517.052,515.823C516.957,515.437 516.414,513.216 518.136,510.986C518.692,510.266 519.509,509.711 520.267,509.136C520.28,509.126 529.533,503.763 537.957,499.404C554.716,490.731 572.223,483.151 584.41,483.358C645.84,484.405 678.325,537.587 677.326,595.515C676.632,635.757 658.603,659.285 646.097,671.699C636.457,681.268 623.415,689.89 607.426,693.469Z" style="fill:rgb(35,31,32);"/>
                    </g>
                    <g transform="matrix(1.00441,0.114571,-0.100706,0.912275,56.2637,-53.2902)">
                        <path d="M798.444,384.826C825.41,377.346 846.929,399.625 858.89,429.31C858.89,429.31 838.595,406.123 828.377,399.341C817.83,392.341 798.444,384.826 798.444,384.826Z" style="fill:white;"/>
                    </g>
                    <g transform="matrix(0.832507,0.76917,-0.716244,0.801054,511.883,-406.659)">
                        <ellipse cx="675.437" cy="451.136" rx="74.004" ry="103.125" style="fill:white;"/>
                        <path d="M675.437,340.063C681.404,340.114 708.38,340.221 732.01,371.074C754.934,401.006 763.084,447.277 752.201,488.687C740.166,534.479 706.589,566.708 667.434,561.682C628.909,556.737 595.952,513.796 593.988,456.067C592.492,412.101 610.512,368.798 642.49,349.47C658.408,339.848 672.7,340.086 675.437,340.063ZM675.437,355.952C675.302,355.956 675.164,355.959 675.021,355.96C634.814,356.307 603.424,408.211 609.759,465.916C615.441,517.674 650.16,554.378 687.198,544.814C722.278,535.755 747.198,487.41 740.977,435.154C735.66,390.481 708.365,356.241 675.852,355.96C675.71,355.959 675.571,355.956 675.437,355.952Z" style="fill:rgb(35,31,32);"/>
                    </g>
                    <g transform="matrix(0.583099,0.486473,-0.651302,0.806681,733.069,-186.902)">
                        <ellipse cx="566.396" cy="479.936" rx="71.55" ry="74.116" style="fill:rgb(113,162,214);"/>
                    </g>
                    <g transform="matrix(0.521219,0,0,0.329837,52.3332,347.302)">
                        <path d="M1357.89,188.143C1411.9,188.143 1452.82,245.397 1452.82,268.263C1452.82,291.129 1418.15,243.321 1364.15,243.321C1310.14,243.321 1271.02,281.22 1271.02,258.354C1271.02,235.488 1303.89,188.143 1357.89,188.143Z" style="fill:rgb(16,130,238);"/>
                    </g>
                    <g transform="matrix(0.583099,0.486473,-0.651302,0.806681,733.069,-186.902)">
                        <path d="M566.396,397.577C572.456,397.615 600.611,397.675 624.733,421.357C659.296,455.29 657.192,513.315 618.139,544.361C583.962,571.531 532.404,567.996 502.759,532.764C473.176,497.605 478.137,443.098 516.221,414.295C538.337,397.569 561.252,397.609 566.396,397.577ZM566.191,414.06C566.023,414.064 565.849,414.067 565.672,414.069C528.504,414.548 499.309,452.746 507.404,493.68C514.749,530.825 550.974,555.588 586.17,542.1C613.47,531.638 632.041,499.839 625.388,466.193C619.669,437.277 595.778,414.154 566.372,414.064C566.307,414.064 566.247,414.063 566.191,414.06Z" style="fill:rgb(35,31,32);"/>
                    </g>
                </g>
                <g transform="matrix(1.02814,0,0,1.04513,-4.03414,-14.9056)">
                    <path d="M692.52,502.493C659.887,482.271 730.153,403.089 747.383,432.84C757.668,450.598 715.061,516.461 692.52,502.493Z" style="fill:white;"/>
                </g>
                <g transform="matrix(0.853018,0.583452,-0.718821,1.08595,503.413,-657.692)">
                    <path d="M1023.21,427.147C1034.27,427.338 1033.37,447.762 1033.37,465.993C1033.37,484.224 1022.34,497.742 1011.28,497.742C1000.22,497.742 988.912,483.741 986.77,465.635C984.597,447.268 1007.95,426.883 1023.21,427.147Z" style="fill:white;"/>
                </g>
            </g>
        </g>
    </g>
</svg>
